<svg width="33" height="32" viewBox="0 0 33 32" fill="none" xmlns="http://www.w3.org/2000/svg">
<path d="M12.2931 19.5C13.1215 19.5 13.7931 18.8284 13.7931 18C13.7931 17.1716 13.1215 16.5 12.2931 16.5C11.4647 16.5 10.7931 17.1716 10.7931 18C10.7931 18.8284 11.4647 19.5 12.2931 19.5Z" fill="#858584"/>
<path d="M20.2931 19.5C21.1215 19.5 21.7931 18.8284 21.7931 18C21.7931 17.1716 21.1215 16.5 20.2931 16.5C19.4647 16.5 18.7931 17.1716 18.7931 18C18.7931 18.8284 19.4647 19.5 20.2931 19.5Z" fill="#858584"/>
<path fill-rule="evenodd" clip-rule="evenodd" d="M16.2858 9.99959C14.118 9.98356 11.9609 10.3055 9.89223 10.9539C9.36522 11.119 8.8041 10.8257 8.63893 10.2987C8.47376 9.77168 8.76709 9.21056 9.2941 9.04539C11.5587 8.33563 13.92 7.98281 16.2932 7.99959C18.6663 7.98281 21.0276 8.33563 23.2922 9.04539C23.8192 9.21056 24.1126 9.77168 23.9474 10.2987C23.7822 10.8257 23.2211 11.119 22.6941 10.9539C20.6254 10.3055 18.4684 9.98356 16.3006 9.99959H16.2858Z" fill="#858584"/>
<path fill-rule="evenodd" clip-rule="evenodd" d="M8.63893 21.7009C8.8041 21.1739 9.36522 20.8806 9.89223 21.0458C11.9609 21.6941 14.118 22.016 16.2858 22H16.3006C18.4684 22.016 20.6254 21.6941 22.6941 21.0458C23.2211 20.8806 23.7822 21.1739 23.9474 21.7009C24.1126 22.2279 23.8192 22.7891 23.2922 22.9542C21.0276 23.664 18.6663 24.0168 16.2932 24C13.92 24.0168 11.5587 23.664 9.2941 22.9542C8.76709 22.7891 8.47376 22.2279 8.63893 21.7009Z" fill="#858584"/>
<path fill-rule="evenodd" clip-rule="evenodd" d="M20.513 4.81121C20.9435 4.56852 21.4482 4.49267 21.9309 4.59812C23.2485 4.88366 24.5384 5.28424 25.7859 5.79524C26.0667 5.90352 26.319 6.07496 26.523 6.29638C26.7293 6.52018 26.8806 6.78885 26.9651 7.08115L31.2009 21.2255C31.3114 21.594 31.314 21.9865 31.2083 22.3563C31.1026 22.7262 30.8931 23.0581 30.6047 23.3126L30.5995 23.3171C28.532 25.1161 25.7307 26.4777 22.5487 27.2577C22.1067 27.3703 21.6393 27.3265 21.2258 27.1336C20.814 26.9414 20.4813 26.6132 20.2834 26.2044L18.7751 23.2129C18.5265 22.7197 18.7247 22.1184 19.2179 21.8698C19.711 21.6211 20.3124 21.8194 20.561 22.3125L22.0735 25.3125L22.0746 25.3147C25.0125 24.5943 27.5066 23.3571 29.2866 21.8083L29.9431 22.5627L29.2815 21.8128C29.2833 21.8113 29.2846 21.8092 29.2852 21.8069C29.2859 21.8046 29.2859 21.8022 29.2852 21.7999L25.0491 7.65465C25.0456 7.65325 25.042 7.65182 25.0385 7.65037C23.8956 7.18149 22.7136 6.81412 21.5063 6.55253L21.5041 6.55205C21.5011 6.55139 21.498 6.55186 21.4953 6.55337C21.4929 6.55473 21.491 6.55684 21.49 6.55937L20.505 9.53905C20.3317 10.0634 19.7661 10.348 19.2417 10.1747C18.7173 10.0013 18.4328 9.43574 18.6061 8.91136L19.5965 5.91516C19.756 5.44707 20.0823 5.0541 20.513 4.81121Z" fill="#858584"/>
<path fill-rule="evenodd" clip-rule="evenodd" d="M11.0908 6.55337C11.0881 6.55186 11.085 6.55139 11.082 6.55205L11.0798 6.55252C9.87249 6.81412 8.69052 7.18148 7.54762 7.65037C7.54409 7.65182 7.54055 7.65324 7.53701 7.65465L3.30103 21.7996C3.30034 21.8019 3.30024 21.8046 3.3009 21.8069C3.30149 21.809 3.3026 21.8108 3.30412 21.8123C5.08381 23.3593 7.5762 24.5949 10.5115 25.3147L10.5126 25.3125L12.0251 22.3125C12.2738 21.8194 12.8751 21.6211 13.3682 21.8698C13.8614 22.1184 14.0596 22.7197 13.811 23.2129L12.3027 26.2045C12.1049 26.6132 11.7721 26.9414 11.3603 27.1336C10.9468 27.3265 10.4794 27.3703 10.0374 27.2577C6.85548 26.4777 4.05411 25.1161 1.98664 23.3171L1.98146 23.3126C1.69299 23.0581 1.48353 22.7262 1.37785 22.3563C1.27219 21.9865 1.27471 21.5942 1.38509 21.2258C1.38507 21.2259 1.38512 21.2257 1.38509 21.2258L5.62099 7.08117C5.70552 6.78887 5.85686 6.52019 6.06312 6.29638C6.26718 6.07496 6.51939 5.90352 6.8002 5.79524C8.04806 5.28409 9.33838 4.88344 10.6563 4.59788C11.1387 4.49279 11.643 4.5687 12.0731 4.81121C12.5039 5.05409 12.8301 5.44708 12.9896 5.91518L12.9926 5.92385L13.98 8.91136C14.1534 9.43574 13.8688 10.0013 13.3444 10.1747C12.82 10.348 12.2544 10.0634 12.0811 9.53905L11.0962 6.55937C11.0951 6.55684 11.0932 6.55473 11.0908 6.55337Z" fill="#858584"/>
<path d="M12.2931 19.5C13.1215 19.5 13.7931 18.8284 13.7931 18C13.7931 17.1716 13.1215 16.5 12.2931 16.5C11.4647 16.5 10.7931 17.1716 10.7931 18C10.7931 18.8284 11.4647 19.5 12.2931 19.5Z" fill="#858584"/>
<path d="M20.2931 19.5C21.1215 19.5 21.7931 18.8284 21.7931 18C21.7931 17.1716 21.1215 16.5 20.2931 16.5C19.4647 16.5 18.7931 17.1716 18.7931 18C18.7931 18.8284 19.4647 19.5 20.2931 19.5Z" fill="#858584"/>
<path fill-rule="evenodd" clip-rule="evenodd" d="M16.2858 9.99959C14.118 9.98356 11.9609 10.3055 9.89223 10.9539C9.36522 11.119 8.8041 10.8257 8.63893 10.2987C8.47376 9.77168 8.76709 9.21056 9.2941 9.04539C11.5587 8.33563 13.92 7.98281 16.2932 7.99959C18.6663 7.98281 21.0276 8.33563 23.2922 9.04539C23.8192 9.21056 24.1126 9.77168 23.9474 10.2987C23.7822 10.8257 23.2211 11.119 22.6941 10.9539C20.6254 10.3055 18.4684 9.98356 16.3006 9.99959H16.2858Z" fill="#858584"/>
<path fill-rule="evenodd" clip-rule="evenodd" d="M8.63893 21.7009C8.8041 21.1739 9.36522 20.8806 9.89223 21.0458C11.9609 21.6941 14.118 22.016 16.2858 22H16.3006C18.4684 22.016 20.6254 21.6941 22.6941 21.0458C23.2211 20.8806 23.7822 21.1739 23.9474 21.7009C24.1126 22.2279 23.8192 22.7891 23.2922 22.9542C21.0276 23.664 18.6663 24.0168 16.2932 24C13.92 24.0168 11.5587 23.664 9.2941 22.9542C8.76709 22.7891 8.47376 22.2279 8.63893 21.7009Z" fill="#858584"/>
<path fill-rule="evenodd" clip-rule="evenodd" d="M20.513 4.81121C20.9435 4.56852 21.4482 4.49267 21.9309 4.59812C23.2485 4.88366 24.5384 5.28424 25.7859 5.79524C26.0667 5.90352 26.319 6.07496 26.523 6.29638C26.7293 6.52018 26.8806 6.78885 26.9651 7.08115L31.2009 21.2255C31.3114 21.594 31.314 21.9865 31.2083 22.3563C31.1026 22.7262 30.8931 23.0581 30.6047 23.3126L30.5995 23.3171C28.532 25.1161 25.7307 26.4777 22.5487 27.2577C22.1067 27.3703 21.6393 27.3265 21.2258 27.1336C20.814 26.9414 20.4813 26.6132 20.2834 26.2044L18.7751 23.2129C18.5265 22.7197 18.7247 22.1184 19.2179 21.8698C19.711 21.6211 20.3124 21.8194 20.561 22.3125L22.0735 25.3125L22.0746 25.3147C25.0125 24.5943 27.5066 23.3571 29.2866 21.8083L29.9431 22.5627L29.2815 21.8128C29.2833 21.8113 29.2846 21.8092 29.2852 21.8069C29.2859 21.8046 29.2859 21.8022 29.2852 21.7999L25.0491 7.65465C25.0456 7.65325 25.042 7.65182 25.0385 7.65037C23.8956 7.18149 22.7136 6.81412 21.5063 6.55253L21.5041 6.55205C21.5011 6.55139 21.498 6.55186 21.4953 6.55337C21.4929 6.55473 21.491 6.55684 21.49 6.55937L20.505 9.53905C20.3317 10.0634 19.7661 10.348 19.2417 10.1747C18.7173 10.0013 18.4328 9.43574 18.6061 8.91136L19.5965 5.91516C19.756 5.44707 20.0823 5.0541 20.513 4.81121Z" fill="#858584"/>
<path fill-rule="evenodd" clip-rule="evenodd" d="M11.0908 6.55337C11.0881 6.55186 11.085 6.55139 11.082 6.55205L11.0798 6.55252C9.87249 6.81412 8.69052 7.18148 7.54762 7.65037C7.54409 7.65182 7.54055 7.65324 7.53701 7.65465L3.30103 21.7996C3.30034 21.8019 3.30024 21.8046 3.3009 21.8069C3.30149 21.809 3.3026 21.8108 3.30412 21.8123C5.08381 23.3593 7.5762 24.5949 10.5115 25.3147L10.5126 25.3125L12.0251 22.3125C12.2738 21.8194 12.8751 21.6211 13.3682 21.8698C13.8614 22.1184 14.0596 22.7197 13.811 23.2129L12.3027 26.2045C12.1049 26.6132 11.7721 26.9414 11.3603 27.1336C10.9468 27.3265 10.4794 27.3703 10.0374 27.2577C6.85548 26.4777 4.05411 25.1161 1.98664 23.3171L1.98146 23.3126C1.69299 23.0581 1.48353 22.7262 1.37785 22.3563C1.27219 21.9865 1.27471 21.5942 1.38509 21.2258C1.38507 21.2259 1.38512 21.2257 1.38509 21.2258L5.62099 7.08117C5.70552 6.78887 5.85686 6.52019 6.06312 6.29638C6.26718 6.07496 6.51939 5.90352 6.8002 5.79524C8.04806 5.28409 9.33838 4.88344 10.6563 4.59788C11.1387 4.49279 11.643 4.5687 12.0731 4.81121C12.5039 5.05409 12.8301 5.44708 12.9896 5.91518L12.9926 5.92385L13.98 8.91136C14.1534 9.43574 13.8688 10.0013 13.3444 10.1747C12.82 10.348 12.2544 10.0634 12.0811 9.53905L11.0962 6.55937C11.0951 6.55684 11.0932 6.55473 11.0908 6.55337Z" fill="#858584"/>
</svg>
