<svg width="20" height="20" viewBox="0 0 20 20" fill="none" xmlns="http://www.w3.org/2000/svg">
<path fill-rule="evenodd" clip-rule="evenodd" d="M10 3.125C7.58375 3.125 5.625 5.08375 5.625 7.5C5.625 9.91625 7.58375 11.875 10 11.875C12.4162 11.875 14.375 9.91625 14.375 7.5C14.375 5.08375 12.4162 3.125 10 3.125ZM4.375 7.5C4.375 4.3934 6.8934 1.875 10 1.875C13.1066 1.875 15.625 4.3934 15.625 7.5C15.625 10.6066 13.1066 13.125 10 13.125C6.8934 13.125 4.375 10.6066 4.375 7.5Z" fill="white"/>
<path fill-rule="evenodd" clip-rule="evenodd" d="M10 13.1245C8.57365 13.1245 7.17242 13.5 5.93719 14.2132C4.70196 14.9265 3.67625 15.9523 2.96318 17.1877C2.79062 17.4866 2.40839 17.5891 2.10944 17.4165C1.81049 17.2439 1.70803 16.8617 1.88059 16.5628C2.70336 15.1374 3.88687 13.9537 5.31214 13.1307C6.73741 12.3078 8.35421 11.8745 10 11.8745C11.6458 11.8745 13.2626 12.3078 14.6879 13.1307C16.1132 13.9537 17.2967 15.1374 18.1194 16.5628C18.292 16.8617 18.1895 17.2439 17.8906 17.4165C17.5916 17.5891 17.2094 17.4866 17.0368 17.1877C16.3238 15.9523 15.2981 14.9265 14.0628 14.2132C12.8276 13.5 11.4264 13.1245 10 13.1245Z" fill="white"/>
</svg>
