<svg width="33" height="32" viewBox="0 0 33 32" fill="none" xmlns="http://www.w3.org/2000/svg">
<path fill-rule="evenodd" clip-rule="evenodd" d="M16.2931 12C14.084 12 12.2931 13.7909 12.2931 16C12.2931 18.2091 14.084 20 16.2931 20C18.5022 20 20.2931 18.2091 20.2931 16C20.2931 13.7909 18.5022 12 16.2931 12ZM10.2931 16C10.2931 12.6863 12.9794 10 16.2931 10C19.6068 10 22.2931 12.6863 22.2931 16C22.2931 19.3137 19.6068 22 16.2931 22C12.9794 22 10.2931 19.3137 10.2931 16Z" fill="#858584"/>
<path fill-rule="evenodd" clip-rule="evenodd" d="M10.7931 5.5C8.03167 5.5 5.79309 7.73858 5.79309 10.5V21.5C5.79309 24.2614 8.03167 26.5 10.7931 26.5H21.7931C24.5545 26.5 26.7931 24.2614 26.7931 21.5V10.5C26.7931 7.73858 24.5545 5.5 21.7931 5.5H10.7931ZM3.79309 10.5C3.79309 6.63401 6.9271 3.5 10.7931 3.5H21.7931C25.6591 3.5 28.7931 6.63401 28.7931 10.5V21.5C28.7931 25.366 25.6591 28.5 21.7931 28.5H10.7931C6.9271 28.5 3.79309 25.366 3.79309 21.5V10.5Z" fill="#858584"/>
<path d="M22.7931 11C23.6215 11 24.2931 10.3284 24.2931 9.5C24.2931 8.67157 23.6215 8 22.7931 8C21.9647 8 21.2931 8.67157 21.2931 9.5C21.2931 10.3284 21.9647 11 22.7931 11Z" fill="#858584"/>
</svg>
