<svg width="20" height="20" viewBox="0 0 20 20" fill="none" xmlns="http://www.w3.org/2000/svg">
<path fill-rule="evenodd" clip-rule="evenodd" d="M6.17053 12.4491C6.28055 12.7763 6.10451 13.1307 5.77734 13.2408C4.71792 13.597 4.15489 14.4864 3.85373 15.3908C3.73414 15.7499 3.66189 16.0956 3.61848 16.3814C3.90434 16.338 4.25006 16.2658 4.60917 16.1462C5.51355 15.845 6.4029 15.282 6.75916 14.2226C6.86918 13.8954 7.2236 13.7194 7.55078 13.8294C7.87795 13.9394 8.05399 14.2938 7.94396 14.621C7.4096 16.21 6.08801 16.9712 5.00411 17.3322C4.45655 17.5145 3.94395 17.6045 3.5698 17.6494C3.38182 17.672 3.22641 17.6834 3.116 17.6892C3.06074 17.6921 3.01658 17.6936 2.98505 17.6944C2.96928 17.6948 2.95666 17.695 2.94737 17.6951L2.93596 17.6952L2.93217 17.6952L2.93077 17.6952L2.93019 17.6952C2.92993 17.6952 2.92969 17.6952 2.92969 17.0702C2.30469 17.0702 2.30469 17.07 2.30469 17.0697L2.30469 17.0692L2.30469 17.0678L2.30471 17.064L2.30481 17.0526C2.30493 17.0433 2.30514 17.0306 2.30553 17.0149C2.30631 16.9833 2.30782 16.9392 2.31072 16.8839C2.31653 16.7735 2.32797 16.6181 2.35052 16.4301C2.3954 16.056 2.48542 15.5434 2.66776 14.9958C3.0287 13.9119 3.78989 12.5903 5.37891 12.056C5.70608 11.9459 6.0605 12.122 6.17053 12.4491ZM2.92969 17.0702H2.30469C2.30469 17.4154 2.58451 17.6952 2.92969 17.6952V17.0702Z" fill="#A259FF"/>
<path fill-rule="evenodd" clip-rule="evenodd" d="M16.5462 3.45406C15.8207 3.34943 14.035 3.31002 12.2075 5.13753L7.34476 10.0003L9.99994 12.6555L14.8627 7.79271C16.6902 5.9652 16.6508 4.17951 16.5462 3.45406ZM16.7274 2.21727C15.7297 2.07282 13.5057 2.07157 11.3236 4.25365L6.01893 9.55834C5.90172 9.67555 5.83588 9.83452 5.83588 10.0003C5.83588 10.166 5.90172 10.325 6.01893 10.4422L9.558 13.9813C9.80208 14.2254 10.1978 14.2254 10.4419 13.9813L15.7466 8.67659C17.9286 6.49452 17.9274 4.27052 17.7829 3.27282C17.7464 3.0058 17.6234 2.75803 17.4328 2.5674C17.2422 2.37678 16.9944 2.25382 16.7274 2.21727Z" fill="#A259FF"/>
<path fill-rule="evenodd" clip-rule="evenodd" d="M14.4219 8.49243C14.7671 8.49243 15.0469 8.77225 15.0469 9.11743V14.1643L15.0468 14.1732C15.0421 14.5015 14.9085 14.8147 14.6749 15.0452L12.1526 17.5753C11.9925 17.7352 11.792 17.8486 11.5724 17.9035C11.3529 17.9584 11.1225 17.9527 10.906 17.8869C10.6895 17.8212 10.4948 17.6978 10.3429 17.5301C10.1911 17.3625 10.0875 17.1569 10.0433 16.9351C10.0433 16.935 10.0434 16.9353 10.0433 16.9351L9.38719 13.6622C9.31934 13.3237 9.5387 12.9944 9.87714 12.9265C10.2156 12.8587 10.545 13.078 10.6128 13.4165L11.2692 16.6909L13.7969 14.1554V9.11743C13.7969 8.77225 14.0767 8.49243 14.4219 8.49243Z" fill="#A259FF"/>
<path fill-rule="evenodd" clip-rule="evenodd" d="M5.82698 4.95319L5.83588 4.95312H10.8828C11.2279 4.95312 11.5078 5.23295 11.5078 5.57812C11.5078 5.9233 11.2279 6.20312 10.8828 6.20312H5.84472L5.83967 6.20828L5.83964 6.20825L3.30933 8.73075L3.3103 8.73094L6.58373 9.38719C6.92218 9.45504 7.14154 9.78441 7.07369 10.1229C7.00584 10.4613 6.67647 10.6807 6.33803 10.6128L3.06556 9.95675C3.06537 9.95671 3.06518 9.95668 3.065 9.95664C2.84325 9.91244 2.63764 9.80892 2.47006 9.65711C2.30235 9.50516 2.17903 9.31054 2.11327 9.094C2.04751 8.87746 2.04176 8.64712 2.09665 8.42757C2.15154 8.20802 2.265 8.00749 2.42493 7.84738L2.42587 7.84644L2.42587 7.84644L4.95498 5.32514C5.18549 5.09151 5.49869 4.95786 5.82698 4.95319Z" fill="#A259FF"/>
</svg>
