<svg width="33" height="32" viewBox="0 0 33 32" fill="none" xmlns="http://www.w3.org/2000/svg">
<path d="M16.293 11.0005C16.293 8.25045 18.6055 5.96295 21.3555 6.00045C22.3186 6.01157 23.2579 6.3006 24.0607 6.8328C24.8634 7.365 25.4953 8.11771 25.8805 9.00045H30.293L26.2555 13.038C25.995 17.0937 24.1996 20.8979 21.2345 23.6773C18.2694 26.4566 14.3571 28.0025 10.293 28.0005C6.29303 28.0005 5.29303 26.5005 5.29303 26.5005C5.29303 26.5005 9.29303 25.0005 11.293 22.0005C11.293 22.0005 3.29303 18.0005 5.29303 7.00045C5.29303 7.00045 10.293 12.0005 16.293 13.0005V11.0005Z" stroke="#858584" stroke-width="2" stroke-linecap="round" stroke-linejoin="round"/>
</svg>
