<svg width="33" height="32" viewBox="0 0 33 32" fill="none" xmlns="http://www.w3.org/2000/svg">
<path fill-rule="evenodd" clip-rule="evenodd" d="M13.8212 11.1183C14.1464 10.9443 14.5409 10.9634 14.8478 11.168L20.8478 15.168C21.126 15.3534 21.2931 15.6656 21.2931 16C21.2931 16.3344 21.126 16.6466 20.8478 16.8321L14.8478 20.8321C14.5409 21.0366 14.1464 21.0557 13.8212 20.8817C13.4961 20.7077 13.2931 20.3688 13.2931 20V12C13.2931 11.6312 13.4961 11.2923 13.8212 11.1183ZM15.2931 13.8685V18.1315L18.4903 16L15.2931 13.8685Z" fill="#858584"/>
<path fill-rule="evenodd" clip-rule="evenodd" d="M16.2916 5.04988L16.2747 5.04984L16.2119 5.04986C16.1574 5.04999 16.0781 5.05038 15.9762 5.05146C15.7725 5.05362 15.4787 5.05853 15.1137 5.06948C14.3843 5.09138 13.3677 5.13752 12.2168 5.23469C9.94042 5.42688 7.04237 5.82574 4.81117 6.67826L4.79647 6.68401C4.3582 6.85944 3.96729 7.13542 3.65527 7.48969C3.34325 7.84396 3.11886 8.2666 3.0002 8.72353L2.99923 8.72729C2.68782 9.94585 2.29309 12.2055 2.29309 15.9999C2.29309 19.7943 2.68782 22.0539 2.99923 23.2725L3.0002 23.2763C3.11886 23.7332 3.34325 24.1558 3.65527 24.5101C3.96729 24.8644 4.3582 25.1403 4.79647 25.3158L4.81117 25.3215C7.04237 26.174 9.94042 26.5729 12.2168 26.7651C13.3677 26.8623 14.3843 26.9084 15.1137 26.9303C15.4787 26.9413 15.7725 26.9462 15.9762 26.9483C16.0781 26.9494 16.1574 26.9498 16.2119 26.9499L16.2747 26.95L16.2916 26.9499H16.2946L16.3115 26.95L16.3743 26.9499C16.4288 26.9498 16.5081 26.9494 16.61 26.9483C16.8137 26.9462 17.1075 26.9413 17.4725 26.9303C18.2019 26.9084 19.2185 26.8623 20.3694 26.7651C22.6458 26.5729 25.5438 26.174 27.775 25.3215L27.7897 25.3158C28.228 25.1403 28.6189 24.8644 28.9309 24.5101C29.2429 24.1558 29.4673 23.7332 29.586 23.2763L29.587 23.2725C29.8984 22.0539 30.2931 19.7943 30.2931 15.9999C30.2931 12.2055 29.8984 9.94585 29.587 8.72729L29.586 8.72353C29.4673 8.2666 29.2429 7.84396 28.9309 7.48969C28.6189 7.13542 28.228 6.85944 27.7897 6.68401L27.775 6.67826C25.5438 5.82574 22.6458 5.42688 20.3694 5.23469C19.2185 5.13752 18.2019 5.09138 17.4725 5.06948C17.1075 5.05853 16.8137 5.05362 16.61 5.05146C16.5081 5.05038 16.4288 5.04999 16.3743 5.04986L16.3115 5.04984L16.2946 5.04988H16.2916ZM16.2878 24.9499L16.2985 24.9499L16.3017 24.9499L16.3148 24.95L16.3698 24.9499C16.419 24.9498 16.4927 24.9495 16.5888 24.9484C16.7808 24.9464 17.0617 24.9417 17.4125 24.9312C18.1147 24.9101 19.0942 24.8656 20.2011 24.7722C22.4372 24.5834 25.0972 24.2018 27.0527 23.4565C27.1975 23.3974 27.3266 23.3056 27.43 23.1882C27.5345 23.0696 27.6098 22.9281 27.6498 22.7751C27.9134 21.7429 28.2931 19.6529 28.2931 15.9999C28.2931 12.3468 27.9134 10.2569 27.6498 9.22467C27.6098 9.07171 27.5345 8.93023 27.43 8.81157C27.3266 8.69418 27.1975 8.60236 27.0527 8.54329C25.0972 7.79794 22.4372 7.41638 20.2011 7.2276C19.0942 7.13414 18.1147 7.08966 17.4125 7.06858C17.0617 7.05805 16.7808 7.05339 16.5888 7.05135C16.4927 7.05033 16.419 7.04997 16.3698 7.04986L16.3148 7.04983L16.3017 7.04987L16.2988 7.04988L16.2877 7.04994L16.2845 7.04987L16.2714 7.04983L16.2164 7.04986C16.1672 7.04997 16.0934 7.05033 15.9974 7.05135C15.8054 7.05339 15.5245 7.05805 15.1737 7.06858C14.4715 7.08966 13.492 7.13414 12.385 7.2276C10.149 7.41638 7.48899 7.79794 5.53348 8.5433C5.3887 8.60237 5.25954 8.69418 5.15615 8.81157C5.05165 8.93023 4.97639 9.07171 4.9364 9.22467C4.67283 10.2569 4.29309 12.3468 4.29309 15.9999C4.29309 19.6529 4.67282 21.7429 4.93639 22.7751C4.97638 22.9281 5.05164 23.0696 5.15615 23.1882C5.25954 23.3056 5.3887 23.3974 5.53347 23.4565C7.48899 24.2018 10.149 24.5834 12.385 24.7722C13.492 24.8656 14.4715 24.9101 15.1737 24.9312C15.5245 24.9417 15.8054 24.9464 15.9974 24.9484C16.0934 24.9495 16.1672 24.9498 16.2164 24.9499L16.2714 24.95L16.2845 24.9499L16.2878 24.9499Z" fill="#858584"/>
</svg>
